<?xml version="1.0" encoding="UTF-8"?>
<svg id="Layer_1" data-name="Layer 1" xmlns="http://www.w3.org/2000/svg" xmlns:xlink="http://www.w3.org/1999/xlink" viewBox="0 0 901.03 459.41">
  <defs>
    <style>
      .cls-1 {
        fill: url(#Degradado_sin_nombre_12-2);
      }

      .cls-2 {
        fill: url(#Degradado_sin_nombre_12-3);
      }

      .cls-3, .cls-4 {
        font-family: Comfortaa-Regular, Comfortaa;
        font-size: 66.02px;
        font-variation-settings: 'wght' 400;
      }

      .cls-5 {
        fill: url(#Degradado_sin_nombre_12);
      }

      .cls-4 {
        fill: #fff;
      }
    </style>
    <linearGradient id="Degradado_sin_nombre_12" data-name="Degradado sin nombre 12" x1="552.68" y1="379.94" x2="710.32" y2="379.94" gradientUnits="userSpaceOnUse">
      <stop offset="0" stop-color="#ff3000"/>
      <stop offset="1" stop-color="#f9a11d"/>
    </linearGradient>
    <linearGradient id="Degradado_sin_nombre_12-2" data-name="Degradado sin nombre 12" x1="520.5" y1="38.94" x2="585.5" y2="38.94" xlink:href="#Degradado_sin_nombre_12"/>
    <linearGradient id="Degradado_sin_nombre_12-3" data-name="Degradado sin nombre 12" x1="0" y1="38.94" x2="65" y2="38.94" xlink:href="#Degradado_sin_nombre_12"/>
  </defs>
  <path class="cls-5" d="M585.93,410.5c-4.1-2.84-8.2-5.68-12.3-8.52-1.96-1.36-3.92-2.74-5.89-4.08-.12-.08-.23-.17-.35-.24-.25-.15-9.47-8.44.84.63-.77-.67.34-.12.3.54,0-.06-.53-.81-.48-.79.29.19.46,1.65.27.58-.27-1.55-.04,1.88.02.18,0-.08,0-.16,0-.24-.08-8.26,0-16.53,0-24.8v-57.54c0-.25.01-.5,0-.75,0-.16.06-.35.01-.5.06.19-.49,1.95-.1.86.06-.17.23-.62.23-.76s-.69,1.74-.38.99c.47-1.15-.04.25-.47.49.12-.07.4-.41.52-.54.72-.83-.54.49-.71.52.14-.03.55-.32.64-.38.69-.43.48.33-.84.35.12,0,.67-.27.72-.2.1.14-1.93.07-1.15.15.23.02.52.01.76-.01.85-.1-1.94-.51-.75-.09.13.05.58.23.75.24-.24,0-1.67-.94-.76-.25.11.09.25.16.37.24.06.04.12.09.19.13.9.6,1.78,1.22,2.67,1.83,4.01,2.74,8.01,5.48,12.02,8.22,10.68,7.3,21.35,14.61,32.03,21.91,2.94,2.01,5.87,4.03,8.82,6.03,5.32,3.6,11.91,3.11,17.08-.4,8.6-5.86,17.19-11.71,25.79-17.57,9.28-6.32,18.56-12.65,27.85-18.97.73-.5,1.45-1.01,2.19-1.49.2-.13.7-.32.78-.47-.04.08-1.61.48-.94.39.24-.03.53-.13.76-.21.86-.32-1.81-.05-.94.14.19.04.81-.11.94.03.03.03-2.2-.34-.98-.07.71.16.5.57-.82-.4.27.2,1.6,1.08.48.16-1.52-1.25,1.14,1.45-.08-.08-.77-.96-.33-.42-.18-.17.66,1.16-.42-1.8-.16-.45.03.17.12.67.19.78-.04-.06-.08-1.76-.18-1.05-.01.09.01.18,0,.27,0,.18,0,.36,0,.53,0,.76,0,1.52,0,2.28v26.92c0,.79,0,1.58,0,2.37,0,.17,0,.33,0,.5.04,1.49.29-1.63-.05.07-.19.94.81-1.37.24-.61-.18.24-.71,1.17-.05.15.58-.88.22-.31,0-.1,32.57-29.11,1.12-.8.85-.63-.03.02-.06.04-.09.06-.18.12-.35.25-.53.37-5.95,4.17-11.89,8.34-17.84,12.51-10.57,7.41-21.15,14.82-31.72,22.24-10.32,7.24-20.65,14.47-30.97,21.71-5.2,3.64-10.43,7.23-15.59,10.93-4.04,2.9-6.68,6.87-6.89,11.95-.16,3.8,1.34,7.49,3.84,10.3.94,1.05,2.11,1.85,3.24,2.68,4.31,3.15,8.65,6.26,12.97,9.38,3.83,2.77,7.6,5.64,11.5,8.32,4.62,3.17,11.24,3.14,15.88.04.66-.44,1.3-.92,1.95-1.37,8.65-6.08,17.3-12.17,25.95-18.25,10-7.03,20-14.07,30-21.1,2.04-1.44,4.11-2.85,6.13-4.32,4.29-3.1,6.76-7.35,6.8-12.71.02-2.34,0-4.68,0-7.02v-14.44c0-4.09-3.59-8-7.81-7.81-4.23.19-7.81,3.43-7.81,7.81v15.2c0,2.16-.05,4.33,0,6.49,0,.05,0,.09,0,.14.05,1.39.4-1.27.08-.45-.63,1.62.61-1.19,0,.04-.54,1.09.25-.33.39-.48-.81.91.35-.19.53-.3-.13.08-.26.18-.39.27-7.36,5.11-14.66,10.31-21.99,15.47-10.59,7.45-21.17,14.89-31.76,22.34-3,2.11-6.01,4.22-9.01,6.34-.28.2-.56.4-.84.59-.05.04-.1.07-.16.11-.08.05-.13.09-.23.15-.26.16-1.26.67-.18.17,1.24-.57-.39-.01-.47.03.21-.11,1.92-.12.62-.18.31.02,1.74.54.63.06-1.23-.54,1.46.93-.16-.13-.15-.1-.29-.2-.44-.31-.56-.4-1.11-.8-1.67-1.21-4.95-3.58-9.9-7.16-14.85-10.74-2.17-1.57-4.35-3.15-6.52-4.72-.5-.36-1-.73-1.51-1.09-.6-.43.7.35.74.55-.01-.06-.59-.61-.57-.6.06.03,1.2,1.61.53.58-.15-.22-.45-.96.06.22.55,1.26.13.13.02-.19-.42-1.26.24.99.12.92.04.02-.06-.73,0-.78.13-.09-.56,2.18-.1.92.06-.16.23-.63.23-.75,0,.1-.88,1.83-.28.79.14-.24.59-.81-.15.13-.79,1-.18.23.07.02.75-.63-1.58,1.05-.76.54.09-.06.18-.13.27-.19.65-.44,1.28-.9,1.92-1.35,2.81-1.97,5.63-3.95,8.44-5.92,9.69-6.79,19.37-13.58,29.06-20.37,10.96-7.69,21.93-15.37,32.89-23.06,7.31-5.12,14.61-10.24,21.92-15.36.68-.48,1.36-.95,2.03-1.43,3.06-2.18,5.33-4.75,6.49-8.39.71-2.2.6-4.53.6-6.81v-26.91c0-2.07.02-4.01-.33-6.08-1.16-6.77-7.73-11.82-14.52-11.67-4.73.1-7.99,2.58-11.64,5.07-4.35,2.97-8.71,5.93-13.06,8.9-10.61,7.23-21.23,14.46-31.84,21.69-2.57,1.75-5.12,3.54-7.71,5.26-.06.04-.12.09-.18.13-.08.05-.13.09-.24.15l-.22.14c-.61.31-.61.32,0,.03.62-.25.61-.28-.03-.08l1.09-.13c.08.04-.99-.02-1,0,.11-.19,1.96.5.6,0,.23.08,1.55.89.47.18-.13-.08-.31-.2-.44-.28-.05-.03-.09-.06-.13-.09-.84-.56-1.66-1.14-2.49-1.7-9.48-6.48-18.95-12.97-28.43-19.45-8.21-5.61-16.4-11.25-24.62-16.84-2.55-1.73-5.67-2.78-8.78-2.6-7.8.44-13.79,6.56-14.09,14.36-.08,2.06,0,4.13,0,6.18v70.77c0,2.22-.06,4.46,0,6.68.16,5.5,2.9,9.62,7.31,12.7,2.07,1.45,4.15,2.88,6.23,4.32,3.93,2.72,7.86,5.44,11.78,8.17,3.37,2.33,8.82.73,10.69-2.8,2.11-3.99.79-8.2-2.8-10.69h0Z"/>
  <g>
    <path class="cls-1" d="M534.21,51.54c-1.69-1.17-3.38-2.34-5.07-3.51-.81-.56-1.61-1.13-2.43-1.68-.05-.03-.09-.07-.14-.1-.1-.06-3.9-3.48.35.26-.32-.28.14-.05.12.22,0-.03-.22-.34-.2-.32.12.08.19.68.11.24-.11-.64-.02.77,0,.08,0-.03,0-.07,0-.1-.03-3.41,0-6.82,0-10.22V12.66c0-.1,0-.21,0-.31,0-.07.02-.14,0-.2.02.08-.2.81-.04.36.02-.07.1-.26.1-.31s-.28.72-.16.41c.2-.47-.02.1-.19.2.05-.03.17-.17.21-.22.3-.34-.22.2-.29.22.06-.01.23-.13.26-.16.28-.18.2.14-.35.14.05,0,.28-.11.3-.08.04.06-.8.03-.47.06.1,0,.22,0,.31,0,.35-.04-.8-.21-.31-.04.05.02.24.09.31.1-.1,0-.69-.39-.31-.1.05.04.1.07.15.1.03.02.05.04.08.05.37.25.73.5,1.1.75l4.96,3.39c4.4,3.01,8.8,6.02,13.21,9.03,1.21.83,2.42,1.66,3.63,2.49,2.19,1.48,4.91,1.28,7.04-.17,3.54-2.42,7.09-4.83,10.63-7.25,3.83-2.61,7.65-5.22,11.48-7.82.3-.2.6-.42.9-.61.08-.05.29-.13.32-.19-.02.03-.66.2-.39.16.1-.01.22-.05.31-.09.36-.13-.75-.02-.39.06.08.02.33-.05.39.01.01.01-.91-.14-.4-.03.29.06.21.24-.34-.17.11.08.66.45.2.07-.63-.51.47.6-.03-.03-.32-.4-.13-.17-.07-.07.27.48-.17-.74-.07-.19.01.07.05.27.08.32-.01-.02-.03-.73-.07-.43,0,.04,0,.07,0,.11,0,.07,0,.15,0,.22,0,.31,0,.63,0,.94v11.1c0,.33,0,.65,0,.98,0,.07,0,.14,0,.21.02.61.12-.67-.02.03-.08.39.34-.56.1-.25-.07.1-.29.48-.02.06.24-.36.09-.13,0-.04,13.43-12,.46-.33.35-.26-.01,0-.02.02-.04.02-.07.05-.15.1-.22.15-2.45,1.72-4.9,3.44-7.36,5.16-4.36,3.06-8.72,6.11-13.08,9.17s-8.51,5.97-12.77,8.95c-2.14,1.5-4.3,2.98-6.43,4.51-1.67,1.19-2.75,2.83-2.84,4.93-.07,1.57.55,3.09,1.58,4.25.39.43.87.76,1.34,1.1,1.78,1.3,3.57,2.58,5.35,3.87,1.58,1.14,3.13,2.33,4.74,3.43,1.9,1.31,4.63,1.29,6.55.02.27-.18.54-.38.8-.57,3.57-2.51,7.13-5.02,10.7-7.53,4.12-2.9,8.25-5.8,12.37-8.7.84-.59,1.69-1.18,2.53-1.78,1.77-1.28,2.79-3.03,2.8-5.24,0-.97,0-1.93,0-2.9v-5.95c0-1.69-1.48-3.3-3.22-3.22s-3.22,1.42-3.22,3.22v6.27c0,.89-.02,1.79,0,2.68,0,.02,0,.04,0,.06.02.57.16-.52.03-.18-.26.67.25-.49,0,.02-.22.45.1-.13.16-.2-.34.38.14-.08.22-.13-.06.03-.11.08-.16.11-3.04,2.11-6.05,4.25-9.07,6.38-4.36,3.07-8.73,6.14-13.09,9.21-1.24.87-2.48,1.74-3.71,2.61-.12.08-.23.16-.35.24-.02.01-.04.03-.06.05-.03.02-.06.04-.1.06-.11.07-.52.28-.07.07.51-.24-.16,0-.19.01.08-.04.79-.05.26-.08.13,0,.72.22.26.02-.51-.22.6.38-.07-.05-.06-.04-.12-.08-.18-.13-.23-.16-.46-.33-.69-.5-2.04-1.48-4.08-2.95-6.12-4.43l-2.69-1.95c-.21-.15-.41-.3-.62-.45-.25-.18.29.15.31.23,0-.03-.25-.25-.24-.25.03.01.5.66.22.24-.06-.09-.19-.39.02.09.23.52.05.05.01-.08-.17-.52.1.41.05.38.02.01-.03-.3,0-.32.05-.04-.23.9-.04.38.02-.07.1-.26.09-.31,0,.04-.36.76-.12.33.06-.1.24-.33-.06.05-.32.41-.08.09.03,0,.31-.26-.65.43-.31.22.04-.02.08-.05.11-.08.27-.18.53-.37.79-.56,1.16-.81,2.32-1.63,3.48-2.44,3.99-2.8,7.99-5.6,11.98-8.4,4.52-3.17,9.04-6.34,13.56-9.51,3.01-2.11,6.02-4.22,9.04-6.34.28-.2.56-.39.84-.59,1.26-.9,2.2-1.96,2.68-3.46.29-.91.25-1.87.25-2.81v-11.1c0-.86.01-1.65-.14-2.51-.48-2.79-3.19-4.87-5.99-4.81-1.95.04-3.29,1.07-4.8,2.09l-5.39,3.67c-4.38,2.98-8.75,5.96-13.13,8.95-1.06.72-2.11,1.46-3.18,2.17-.03.02-.05.04-.08.05-.03.02-.06.04-.1.06l-.09.06c-.25.13-.25.13,0,.01.26-.1.25-.12-.01-.03l.45-.05s-.41,0-.41,0c.04-.08.81.21.25,0,.09.03.64.37.19.07-.05-.03-.13-.08-.18-.11-.02-.01-.04-.03-.06-.04-.35-.23-.68-.47-1.03-.7-3.91-2.67-7.82-5.35-11.72-8.02-3.38-2.32-6.76-4.64-10.15-6.95-1.05-.71-2.34-1.15-3.62-1.07-3.22.18-5.69,2.7-5.81,5.92-.03.85,0,1.7,0,2.55v29.18c0,.92-.03,1.84,0,2.75.06,2.27,1.2,3.97,3.02,5.24.85.6,1.71,1.19,2.57,1.78,1.62,1.12,3.24,2.24,4.86,3.37,1.39.96,3.64.3,4.41-1.16.87-1.64.33-3.38-1.16-4.41h0Z"/>
    <text class="cls-3" transform="translate(605.85 58.79)"><tspan x="0" y="0">leaderlix</tspan></text>
  </g>
  <g>
    <path class="cls-2" d="M13.71,51.54c-1.69-1.17-3.38-2.34-5.07-3.51-.81-.56-1.61-1.13-2.43-1.68-.05-.03-.09-.07-.14-.1-.1-.06-3.9-3.48.35.26-.32-.28.14-.05.12.22,0-.03-.22-.34-.2-.32.12.08.19.68.11.24-.11-.64-.02.77,0,.08,0-.03,0-.07,0-.1-.03-3.41,0-6.82,0-10.22V12.66c0-.1,0-.21,0-.31,0-.07.02-.14,0-.2.02.08-.2.81-.04.36.02-.07.1-.26.1-.31s-.28.72-.16.41c.2-.47-.02.1-.19.2.05-.03.17-.17.21-.22.3-.34-.22.2-.29.22.06-.01.23-.13.26-.16.28-.18.2.14-.35.14.05,0,.28-.11.3-.08.04.06-.8.03-.47.06.1,0,.22,0,.31,0,.35-.04-.8-.21-.31-.04.05.02.24.09.31.1-.1,0-.69-.39-.31-.1.05.04.1.07.15.1.03.02.05.04.08.05.37.25.73.5,1.1.75l4.96,3.39c4.4,3.01,8.8,6.02,13.21,9.03,1.21.83,2.42,1.66,3.63,2.49,2.19,1.48,4.91,1.28,7.04-.17,3.54-2.42,7.09-4.83,10.63-7.25,3.83-2.61,7.65-5.22,11.48-7.82.3-.2.6-.42.9-.61.08-.05.29-.13.32-.19-.02.03-.66.2-.39.16.1-.01.22-.05.31-.09.36-.13-.75-.02-.39.06.08.02.33-.05.39.01.01.01-.91-.14-.4-.03.29.06.21.24-.34-.17.11.08.66.45.2.07-.63-.51.47.6-.03-.03-.32-.4-.13-.17-.07-.07.27.48-.17-.74-.07-.19.01.07.05.27.08.32-.01-.02-.03-.73-.07-.43,0,.04,0,.07,0,.11,0,.07,0,.15,0,.22,0,.31,0,.63,0,.94v11.1c0,.33,0,.65,0,.98,0,.07,0,.14,0,.21.02.61.12-.67-.02.03-.08.39.34-.56.1-.25-.07.1-.29.48-.02.06.24-.36.09-.13,0-.04,13.43-12,.46-.33.35-.26-.01,0-.02.02-.04.02-.07.05-.15.1-.22.15-2.45,1.72-4.9,3.44-7.36,5.16-4.36,3.06-8.72,6.11-13.08,9.17-4.26,2.98-8.51,5.97-12.77,8.95-2.14,1.5-4.3,2.98-6.43,4.51-1.67,1.19-2.75,2.83-2.84,4.93-.07,1.57.55,3.09,1.58,4.25.39.43.87.76,1.34,1.1,1.78,1.3,3.57,2.58,5.35,3.87,1.58,1.14,3.13,2.33,4.74,3.43,1.9,1.31,4.63,1.29,6.55.02.27-.18.54-.38.8-.57,3.57-2.51,7.13-5.02,10.7-7.53l12.37-8.7c.84-.59,1.69-1.18,2.53-1.78,1.77-1.28,2.79-3.03,2.8-5.24,0-.97,0-1.93,0-2.9v-5.95c0-1.69-1.48-3.3-3.22-3.22s-3.22,1.42-3.22,3.22v6.27c0,.89-.02,1.79,0,2.68,0,.02,0,.04,0,.06.02.57.16-.52.03-.18-.26.67.25-.49,0,.02-.22.45.1-.13.16-.2-.34.38.14-.08.22-.13-.06.03-.11.08-.16.11-3.04,2.11-6.05,4.25-9.07,6.38-4.36,3.07-8.73,6.14-13.09,9.21-1.24.87-2.48,1.74-3.71,2.61-.12.08-.23.16-.35.24-.02.01-.04.03-.06.05-.03.02-.06.04-.1.06-.11.07-.52.28-.07.07.51-.24-.16,0-.19.01.08-.04.79-.05.26-.08.13,0,.72.22.26.02-.51-.22.6.38-.07-.05-.06-.04-.12-.08-.18-.13-.23-.16-.46-.33-.69-.5-2.04-1.48-4.08-2.95-6.12-4.43l-2.69-1.95c-.21-.15-.41-.3-.62-.45-.25-.18.29.15.31.23,0-.03-.25-.25-.24-.25.03.01.5.66.22.24-.06-.09-.19-.39.02.09.23.52.05.05.01-.08-.17-.52.1.41.05.38.02.01-.03-.3,0-.32.05-.04-.23.9-.04.38.02-.07.1-.26.09-.31,0,.04-.36.76-.12.33.06-.1.24-.33-.06.05-.32.41-.08.09.03,0,.31-.26-.65.43-.31.22.04-.02.08-.05.11-.08.27-.18.53-.37.79-.56,1.16-.81,2.32-1.63,3.48-2.44,3.99-2.8,7.99-5.6,11.98-8.4,4.52-3.17,9.04-6.34,13.56-9.51,3.01-2.11,6.02-4.22,9.04-6.34.28-.2.56-.39.84-.59,1.26-.9,2.2-1.96,2.68-3.46.29-.91.25-1.87.25-2.81v-11.1c0-.86.01-1.65-.14-2.51-.48-2.79-3.19-4.87-5.99-4.81-1.95.04-3.29,1.07-4.8,2.09l-5.39,3.67c-4.38,2.98-8.75,5.96-13.13,8.95-1.06.72-2.11,1.46-3.18,2.17-.03.02-.05.04-.08.05-.03.02-.06.04-.1.06l-.09.06c-.25.13-.25.13,0,.01.26-.1.25-.12-.01-.03l.45-.05s-.41,0-.41,0c.04-.08.81.21.25,0,.09.03.64.37.19.07-.05-.03-.13-.08-.18-.11-.02-.01-.04-.03-.06-.04-.35-.23-.68-.47-1.03-.7-3.91-2.67-7.82-5.35-11.72-8.02-3.38-2.32-6.76-4.64-10.15-6.95-1.05-.71-2.34-1.15-3.62-1.07C2.61,6.5.14,9.02.02,12.24c-.03.85,0,1.7,0,2.55v29.18c0,.92-.03,1.84,0,2.75.06,2.27,1.2,3.97,3.02,5.24.85.6,1.71,1.19,2.57,1.78,1.62,1.12,3.24,2.24,4.86,3.37,1.39.96,3.64.3,4.41-1.16.87-1.64.33-3.38-1.16-4.41h0Z"/>
    <text class="cls-4" transform="translate(85.35 58.79)"><tspan x="0" y="0">leaderlix</tspan></text>
  </g>
</svg>